<svg xmlns="http://www.w3.org/2000/svg" viewBox="0 0 900 600" role="img" aria-labelledby="t"><title id="t">Hajmosás és szárítás</title><defs><linearGradient id="g" x1="0" y1="0" x2="1" y2="1"><stop stop-color="#e4e5df"/><stop offset="1" stop-color="#aeb2aa"/></linearGradient></defs><rect width="900" height="600" rx="40" fill="url(#g)"/><path d="M160 389c77-65 192-68 274-8 94 68 207 69 307 3" fill="none" stroke="#2b302d" stroke-width="48" stroke-linecap="round"/><path d="M190 322c66-50 155-48 219 5 101 83 225 81 330 0" fill="none" stroke="#c09a67" stroke-width="10" stroke-linecap="round"/><path d="M322 176c0-61 49-110 110-110h94c61 0 110 49 110 110" fill="none" stroke="#313632" stroke-width="22" stroke-linecap="round"/><path d="M636 172h65c37 0 67 30 67 67v25" fill="none" stroke="#313632" stroke-width="18" stroke-linecap="round"/><path d="M744 264c0 42-34 76-76 76" fill="none" stroke="#c09a67" stroke-width="13" stroke-linecap="round"/><g fill="#f7f2e7" opacity=".86"><circle cx="670" cy="356" r="18"/><circle cx="719" cy="394" r="10"/><circle cx="634" cy="409" r="13"/><circle cx="748" cy="450" r="15"/></g></svg>
